<svg xmlns="http://www.w3.org/2000/svg" xmlns:xlink="http://www.w3.org/1999/xlink" version="1.1" x="0px" y="0px"
    viewBox="0 0 100 125" style="enable-background:new 0 0 100 100;" xml:space="preserve">
    <g stroke="transparent" fill="orangered" stroke-width="1">
        <path
            d="M73.7,29.3C70.9,14.9,57,5.5,42.6,8.2c-6,1.1-11.1,4.2-14.9,8.5h-5.3v1.9h3.8c-2.4,3.3-4.1,7.2-4.8,11.3h-9.6v1.9h9.4   c-0.2,2.4-0.1,4.9,0.3,7.4c0.5,2.6,1.4,5.2,2.7,7.5l0.5,0.9l0.1-0.1l25.6,18.5l-10.3,2c-1.3,0.2-2.1,1.5-1.9,2.7l0.1,0.5h-8.5v1.9   h8.9l0.3,1.7c0.2,1.3,1.4,2.1,2.7,1.9l2.9,15.3c0.2,1.3,1.5,2.1,2.7,1.9l22.3-4.3c1.3-0.2,2.1-1.5,1.9-2.7l-2.9-15.3   c1.2-0.3,2.1-1.5,1.8-2.7l-0.8-4.1c-0.2-1.3-1.5-2.1-2.7-1.9l-10.3,2l17-26.6l0.2,0.1l0.1-1.1C74.3,34.6,74.2,32,73.7,29.3z    M53.4,65.5L43.1,47.3c1.7-1.8,3.9-2.9,6.3-3.4c2.3-0.4,4.7-0.2,6.8,0.7L53.4,65.5z M41.1,47.3l9.5,16.9L26.2,46.5   c1.4-1,3-1.7,4.7-2C34.6,43.8,38.3,44.8,41.1,47.3z M58,44.9l0.2-0.4c1.6-3.6,4.9-6.1,8.7-6.9c1.7-0.3,3.4-0.3,5.1,0.2l-16.6,26   L58,44.9z M23.2,38.9c-0.5-2.4-0.5-4.8-0.3-7.1h8.4v-1.9h-8.1c0.8-4.2,2.6-8.1,5.2-11.3h7.7v-1.9h-6c3.4-3.4,7.8-5.8,12.8-6.8   c13.4-2.6,26.5,6.3,29,19.7c0.4,2.1,0.5,4.3,0.4,6.4c-1.9-0.5-3.9-0.5-5.8-0.1c-4.1,0.8-7.6,3.4-9.6,7.1c-2.5-1-5.2-1.3-7.8-0.8   c-2.7,0.5-5.1,1.8-7,3.6c-3.2-2.7-7.4-3.8-11.5-3.1c-1.9,0.4-3.8,1.1-5.4,2.3C24.3,43.1,23.6,41.1,23.2,38.9z M69.4,88l-22.3,4.3   c-0.3,0.1-0.6-0.2-0.7-0.5l-2.9-15.3L67,72l2.9,15.3C70,87.6,69.7,87.9,69.4,88z M67.3,64.7c0.3-0.1,0.6,0.2,0.7,0.5l0.8,4.1   c0.1,0.3-0.2,0.6-0.5,0.7l-26.9,5.1c-0.3,0.1-0.6-0.2-0.7-0.5l-0.3-1.4h3v-1.9h-3.4L40,70.5c-0.1-0.3,0.2-0.6,0.5-0.7L67.3,64.7z" />
        <rect x="33" y="29.9" width="2.3" height="1.9" />
        <rect x="37.8" y="16.7" width="2.3" height="1.9" />
        <rect x="45.2" y="71.3" width="2.3" height="1.9" />
        <ellipse transform="matrix(0.9823 -0.1871 0.1871 0.9823 -14.007 10.3707)" cx="47.9" cy="79.4" rx="1.5"
            ry="1.5" />
        <ellipse transform="matrix(0.9823 -0.1871 0.1871 0.9823 -13.1562 13.3032)" cx="63.9" cy="76.3" rx="1.5"
            ry="1.5" />
        <path
            d="M63.2,81.2L63.2,81.2c-0.3-0.7-1.2-1.1-2.1-0.9L52.2,82c-0.9,0.2-1.6,0.9-1.6,1.7l0,0l0.1,0.2l0,0l0,0   c0.6,2.9,3.9,4.8,7.3,4.1c3.5-0.7,5.8-3.6,5.3-6.6L63.2,81.2z M57.8,87.2c-2,0.4-3.8-0.5-4.1-1.9c0,0,0,0,0,0c0,0,0,0,0,0   c-0.1-0.4,0.3-0.7,0.8-0.8l5.3-1c0.5-0.1,1,0.1,1.1,0.5l0,0c0,0,0,0,0,0c0,0,0,0,0,0C61.2,85.3,59.8,86.8,57.8,87.2z" />
    </g>
</svg>